<svg width="149" height="41" viewBox="0 0 149 41" fill="none" xmlns="http://www.w3.org/2000/svg">
<g opacity="0.6">
<rect x="0.511364" y="0.511364" width="39.8864" height="39.8864" rx="19.9432" stroke="white" stroke-width="1.02273"/>
<g clip-path="url(#clip0_333_441)">
<path d="M29.1481 21.6065C29.1481 20.0224 28.7617 18.5639 27.989 17.2309C27.2163 15.8979 26.1634 14.8354 24.8305 14.0434C23.4975 13.2514 22.039 12.8553 20.4549 12.8553C18.8708 12.8553 17.4123 13.2514 16.0793 14.0434C14.7464 14.8354 13.6935 15.8979 12.9208 17.2309C12.1481 18.5639 11.7617 20.0224 11.7617 21.6065C11.7617 23.036 12.0805 24.369 12.718 25.6053C13.3555 26.8417 14.2344 27.8656 15.3549 28.6769C16.4754 29.4883 17.731 30.0099 19.1219 30.2417V24.1565H16.8617V21.6065H19.1219V19.694C19.1219 18.6122 19.4117 17.7718 19.9913 17.1729C20.5708 16.5741 21.3629 16.2747 22.3674 16.2747C22.7538 16.2747 23.1981 16.294 23.7004 16.3326L24.3379 16.4485V18.5928H23.2367C22.7344 18.5928 22.3674 18.7184 22.1356 18.9695C21.9038 19.2207 21.7879 19.5587 21.7879 19.9837V21.6065H24.2219L23.8163 24.1565H21.7879V30.2417C23.1788 30.0099 24.4344 29.4883 25.5549 28.6769C26.6754 27.8656 27.5543 26.8417 28.1918 25.6053C28.8293 24.369 29.1481 23.036 29.1481 21.6065Z" fill="white"/>
</g>
<rect x="51.6481" y="0.511364" width="39.8864" height="39.8864" rx="19.9432" stroke="white" stroke-width="1.02273"/>
<g clip-path="url(#clip1_333_441)">
<path d="M71.5916 12.8553C70.0075 12.8553 68.549 13.2417 67.2161 14.0144C65.8831 14.7872 64.8303 15.84 64.0575 17.1729C63.2848 18.5059 62.8984 19.9644 62.8984 21.5485C62.8984 23.1326 63.2848 24.5911 64.0575 25.9241C64.8303 27.257 65.8831 28.3099 67.2161 29.0826C68.549 29.8553 70.0075 30.2417 71.5916 30.2417C73.1757 30.2417 74.6342 29.8553 75.9672 29.0826C77.3001 28.3099 78.353 27.257 79.1257 25.9241C79.8984 24.5911 80.2848 23.1326 80.2848 21.5485C80.2848 19.9644 79.8984 18.5059 79.1257 17.1729C78.353 15.84 77.3001 14.7872 75.9672 14.0144C74.6342 13.2417 73.1757 12.8553 71.5916 12.8553ZM77.3291 16.8542C77.87 17.511 78.2854 18.2354 78.5751 19.0275C78.8649 19.8195 79.0098 20.6406 79.0098 21.4906C78.4303 21.3747 77.8121 21.2781 77.1553 21.2008C75.9575 21.0849 74.8564 21.1042 73.8518 21.2587L73.2143 19.8099C74.3734 19.3076 75.378 18.7087 76.228 18.0133C76.6916 17.6269 77.0587 17.2406 77.3291 16.8542ZM71.5916 14.1303C72.5189 14.1303 73.4075 14.2945 74.2575 14.6229C75.1075 14.9514 75.8609 15.4053 76.5178 15.9849C76.2859 16.3326 75.9575 16.6803 75.5325 17.0281C74.7212 17.7235 73.7553 18.2837 72.6348 18.7087C71.8234 17.2019 70.8962 15.7531 69.853 14.3622C70.4325 14.2076 71.0121 14.1303 71.5916 14.1303ZM68.4041 14.8258C69.4087 16.2167 70.3359 17.6462 71.1859 19.1144C69.7564 19.5008 68.2496 19.7712 66.6655 19.9258C65.8155 20.0031 65.0428 20.0417 64.3473 20.0417C64.5791 18.8826 65.0524 17.8491 65.7672 16.9411C66.482 16.0332 67.3609 15.3281 68.4041 14.8258ZM64.1734 21.5485V21.3167C64.8303 21.3553 65.6803 21.3167 66.7234 21.2008C68.5393 21.0462 70.22 20.7372 71.7655 20.2735C71.9587 20.6212 72.1712 21.0462 72.403 21.5485L72.1132 21.6065C70.4905 22.1474 69.0223 23.094 67.7087 24.4462C67.0518 25.1417 66.5109 25.8372 66.0859 26.5326C65.4678 25.8372 64.9945 25.0644 64.6661 24.2144C64.3376 23.3644 64.1734 22.4758 64.1734 21.5485ZM71.5916 28.9667C70.7803 28.9667 69.9786 28.8315 69.1865 28.561C68.3945 28.2906 67.67 27.9042 67.0132 27.4019C67.3223 26.8224 67.7859 26.2042 68.4041 25.5474C69.6018 24.311 71.0893 23.3837 72.8666 22.7656H72.9246C73.62 24.5815 74.1416 26.4553 74.4893 28.3872C73.5621 28.7735 72.5962 28.9667 71.5916 28.9667ZM75.7064 27.6917C75.6291 27.1894 75.5132 26.5906 75.3587 25.8951C75.0496 24.6974 74.7018 23.5383 74.3155 22.4178C75.2814 22.2633 76.3053 22.2633 77.3871 22.4178C78.0053 22.4951 78.5075 22.5917 78.8939 22.7076C78.7393 23.7508 78.382 24.6974 77.8217 25.5474C77.2615 26.3974 76.5564 27.1122 75.7064 27.6917Z" fill="white"/>
</g>
<rect x="102.785" y="0.511364" width="39.8864" height="39.8864" rx="19.9432" stroke="white" stroke-width="1.02273"/>
<g clip-path="url(#clip2_333_441)">
<path d="M122.728 12.8553C121.106 12.8553 119.898 12.8747 119.106 12.9133C118.314 12.9519 117.628 13.0872 117.049 13.319C116.469 13.5508 115.957 13.8889 115.513 14.3332C115.069 14.7775 114.731 15.2894 114.499 15.869C114.267 16.4485 114.132 17.1343 114.093 17.9264C114.054 18.7184 114.035 19.9258 114.035 21.5485C114.035 23.1712 114.054 24.3786 114.093 25.1707C114.132 25.9627 114.267 26.6485 114.499 27.2281C114.731 27.8076 115.069 28.3195 115.513 28.7639C115.957 29.2082 116.469 29.5462 117.049 29.7781C117.628 30.0099 118.314 30.1451 119.106 30.1837C119.898 30.2224 121.106 30.2417 122.728 30.2417C124.351 30.2417 125.558 30.2224 126.35 30.1837C127.143 30.1451 127.828 30.0099 128.408 29.7781C128.987 29.5462 129.499 29.2082 129.944 28.7639C130.388 28.3195 130.726 27.8076 130.958 27.2281C131.19 26.6485 131.325 25.9627 131.364 25.1707C131.402 24.3786 131.422 23.1712 131.422 21.5485C131.422 19.9258 131.402 18.7184 131.364 17.9264C131.325 17.1343 131.19 16.4485 130.958 15.869C130.726 15.2894 130.388 14.7775 129.944 14.3332C129.499 13.8889 128.987 13.5508 128.408 13.319C127.828 13.0872 127.143 12.9519 126.35 12.9133C125.558 12.8747 124.351 12.8553 122.728 12.8553ZM121.975 14.4201H122.728C124.351 14.4201 125.529 14.4394 126.264 14.4781C126.882 14.5167 127.394 14.6133 127.799 14.7678C128.205 14.9224 128.553 15.1445 128.843 15.4343C129.132 15.7241 129.354 16.0718 129.509 16.4775C129.664 16.8832 129.76 17.3951 129.799 18.0133C129.837 18.7474 129.857 19.9258 129.857 21.5485C129.857 23.1712 129.837 24.3497 129.799 25.0837C129.76 25.7019 129.664 26.2139 129.509 26.6195C129.354 27.0252 129.132 27.3729 128.843 27.6627C128.553 27.9525 128.205 28.1747 127.799 28.3292C127.394 28.4837 126.882 28.5803 126.264 28.619C125.491 28.6576 124.312 28.6769 122.728 28.6769C121.144 28.6769 119.966 28.6576 119.193 28.619C118.575 28.5803 118.063 28.4837 117.657 28.3292C117.252 28.1747 116.904 27.9525 116.614 27.6627C116.324 27.3729 116.102 27.0252 115.948 26.6195C115.793 26.2139 115.697 25.7019 115.658 25.0837C115.619 24.311 115.6 23.1229 115.6 21.5195C115.6 19.9161 115.619 18.7474 115.658 18.0133C115.697 17.3951 115.793 16.8832 115.948 16.4775C116.102 16.0718 116.324 15.7241 116.614 15.4343C116.904 15.1445 117.252 14.9224 117.657 14.7678C118.063 14.6133 118.594 14.5167 119.251 14.4781C119.908 14.4394 120.816 14.4201 121.975 14.4201ZM127.365 15.869C127.094 15.869 126.853 15.9656 126.64 16.1587C126.428 16.3519 126.322 16.5934 126.322 16.8832C126.322 17.1729 126.428 17.4241 126.64 17.6366C126.853 17.8491 127.104 17.9553 127.394 17.9553C127.683 17.9553 127.925 17.8491 128.118 17.6366C128.311 17.4241 128.408 17.1729 128.408 16.8832C128.408 16.5934 128.311 16.3519 128.118 16.1587C127.925 15.9656 127.674 15.869 127.365 15.869ZM122.728 17.086C121.917 17.086 121.164 17.2792 120.468 17.6656C119.773 18.0519 119.222 18.5928 118.816 19.2883C118.411 19.9837 118.208 20.7372 118.208 21.5485C118.208 22.3599 118.411 23.1133 118.816 23.8087C119.222 24.5042 119.773 25.0451 120.468 25.4315C121.164 25.8178 121.917 26.011 122.728 26.011C123.54 26.011 124.283 25.8082 124.96 25.4025C125.636 24.9968 126.167 24.4559 126.553 23.7798C126.94 23.1036 127.133 22.3599 127.133 21.5485C127.133 20.7372 126.94 19.9934 126.553 19.3173C126.167 18.6411 125.636 18.1002 124.96 17.6945C124.283 17.2889 123.54 17.086 122.728 17.086ZM122.728 18.6508C123.231 18.6508 123.714 18.7764 124.177 19.0275C124.641 19.2786 124.998 19.636 125.249 20.0997C125.5 20.5633 125.626 21.0462 125.626 21.5485C125.626 22.0508 125.5 22.5337 125.249 22.9974C124.998 23.461 124.641 23.8184 124.177 24.0695C123.714 24.3207 123.231 24.4462 122.728 24.4462C121.917 24.4462 121.231 24.1661 120.671 23.6059C120.111 23.0457 119.831 22.3599 119.831 21.5485C119.831 20.7372 120.111 20.0514 120.671 19.4911C121.231 18.9309 121.917 18.6508 122.728 18.6508Z" fill="white"/>
</g>
</g>
<defs>
<clipPath id="clip0_333_441">
<rect width="17.3864" height="26.0795" fill="white" transform="matrix(1 0 0 -1 11.7617 34.5884)"/>
</clipPath>
<clipPath id="clip1_333_441">
<rect width="17.3864" height="26.0795" fill="white" transform="matrix(1 0 0 -1 62.8984 34.5884)"/>
</clipPath>
<clipPath id="clip2_333_441">
<rect width="17.3864" height="26.0795" fill="white" transform="matrix(1 0 0 -1 114.035 34.5884)"/>
</clipPath>
</defs>
</svg>
