<svg width="54" height="55" viewBox="0 0 54 55" fill="none" xmlns="http://www.w3.org/2000/svg">
<rect width="54" height="55" rx="27" fill="black"/>
<path d="M21.9316 31.3865V29.341C21.9316 28.7198 22.0415 28.0607 22.2612 27.3638C22.4885 26.6592 22.8142 25.9812 23.2385 25.3297C23.6703 24.6706 24.1892 24.0986 24.7953 23.6138L26.2498 24.7956C25.7725 25.4774 25.3559 26.1895 24.9998 26.932C24.6513 27.6668 24.4771 28.4547 24.4771 29.2956V31.3865H21.9316ZM27.7498 31.3865V29.341C27.7498 28.7198 27.8597 28.0607 28.0794 27.3638C28.3066 26.6592 28.6324 25.9812 29.0566 25.3297C29.4885 24.6706 30.0074 24.0986 30.6135 23.6138L32.068 24.7956C31.5907 25.4774 31.1741 26.1895 30.818 26.932C30.4695 27.6668 30.2953 28.4547 30.2953 29.2956V31.3865H27.7498Z" fill="white"/>
</svg>
