<svg width="155" height="155" viewBox="0 0 155 155" fill="none" xmlns="http://www.w3.org/2000/svg">
<rect width="155" height="155" fill="black"/>
<path d="M32.1925 86.6335V80.1385L51.3253 49.9091H56.7415V59.1562H53.4389L40.5589 79.5661V79.9183H67.2656V86.6335H32.1925ZM53.7031 95V84.652L53.7912 81.7457V49.9091H61.4972V95H53.7031ZM78.0265 95.4844C76.6908 95.4844 75.5459 95.0147 74.5918 94.0753C73.6377 93.1359 73.168 91.991 73.1827 90.6406C73.168 89.3196 73.6377 88.1894 74.5918 87.25C75.5459 86.3106 76.6908 85.8409 78.0265 85.8409C79.3181 85.8409 80.441 86.3106 81.3951 87.25C82.3638 88.1894 82.8555 89.3196 82.8702 90.6406C82.8555 91.536 82.6207 92.3506 82.1657 93.0845C81.7253 93.8184 81.1382 94.4055 80.4043 94.8459C79.6851 95.2715 78.8925 95.4844 78.0265 95.4844ZM105.344 95.6165C102.071 95.6165 99.1647 95.0661 96.6254 93.9652C94.1007 92.8643 92.1192 91.3598 90.6808 89.4517C89.257 87.5289 88.5524 85.3492 88.5671 82.9126C88.5524 81.0192 88.9634 79.2798 89.8001 77.6946C90.6367 76.1094 91.7669 74.7884 93.1907 73.7315C94.6291 72.66 96.229 71.9775 97.9904 71.6839V71.3757C95.6713 70.862 93.7925 69.6804 92.354 67.831C90.9303 65.9669 90.2257 63.8165 90.2404 61.38C90.2257 59.0608 90.8716 56.9912 92.1779 55.1712C93.4843 53.3511 95.275 51.92 97.5501 50.8778C99.8252 49.821 102.423 49.2926 105.344 49.2926C108.236 49.2926 110.812 49.821 113.072 50.8778C115.347 51.92 117.138 53.3511 118.444 55.1712C119.765 56.9912 120.426 59.0608 120.426 61.38C120.426 63.8165 119.699 65.9669 118.246 67.831C116.808 69.6804 114.951 70.862 112.676 71.3757V71.6839C114.437 71.9775 116.022 72.66 117.431 73.7315C118.855 74.7884 119.985 76.1094 120.822 77.6946C121.673 79.2798 122.099 81.0192 122.099 82.9126C122.099 85.3492 121.38 87.5289 119.941 89.4517C118.503 91.3598 116.521 92.8643 113.997 93.9652C111.487 95.0661 108.603 95.6165 105.344 95.6165ZM105.344 89.3196C107.032 89.3196 108.5 89.0334 109.748 88.4609C110.995 87.8738 111.964 87.0518 112.654 85.995C113.344 84.9382 113.696 83.7199 113.711 82.3402C113.696 80.9018 113.322 79.6321 112.588 78.5312C111.868 77.4157 110.878 76.5424 109.615 75.9112C108.368 75.2801 106.944 74.9645 105.344 74.9645C103.73 74.9645 102.291 75.2801 101.029 75.9112C99.7665 76.5424 98.7683 77.4157 98.0344 78.5312C97.3152 79.6321 96.963 80.9018 96.9776 82.3402C96.963 83.7199 97.3005 84.9382 97.9904 85.995C98.6803 87.0372 99.649 87.8518 100.897 88.4389C102.159 89.026 103.641 89.3196 105.344 89.3196ZM105.344 68.7777C106.724 68.7777 107.942 68.4988 108.999 67.941C110.07 67.3833 110.914 66.6053 111.531 65.6072C112.147 64.6091 112.463 63.4569 112.478 62.1506C112.463 60.8589 112.155 59.7287 111.553 58.7599C110.951 57.7765 110.114 57.0206 109.043 56.4922C107.971 55.9491 106.739 55.6776 105.344 55.6776C103.92 55.6776 102.665 55.9491 101.579 56.4922C100.508 57.0206 99.671 57.7765 99.0692 58.7599C98.4821 59.7287 98.1959 60.8589 98.2106 62.1506C98.1959 63.4569 98.4895 64.6091 99.0913 65.6072C99.7077 66.5907 100.552 67.3686 101.623 67.941C102.709 68.4988 103.95 68.7777 105.344 68.7777Z" fill="white"/>
<path d="M33.6181 133.242C32.9245 133.242 32.2973 133.114 31.7367 132.857C31.176 132.596 30.7318 132.218 30.404 131.724C30.0809 131.23 29.9194 130.624 29.9194 129.907C29.9194 129.289 30.0381 128.781 30.2757 128.382C30.5132 127.983 30.834 127.667 31.2378 127.434C31.6417 127.201 32.093 127.025 32.5919 126.907C33.0908 126.788 33.5991 126.698 34.117 126.636C34.7727 126.56 35.3048 126.498 35.7134 126.451C36.122 126.398 36.419 126.315 36.6043 126.201C36.7896 126.087 36.8822 125.902 36.8822 125.645V125.595C36.8822 124.973 36.7064 124.491 36.3548 124.149C36.008 123.806 35.4901 123.635 34.8012 123.635C34.0838 123.635 33.5184 123.795 33.105 124.113C32.6964 124.427 32.4137 124.776 32.2569 125.161L30.2543 124.704C30.4919 124.039 30.8387 123.502 31.2948 123.094C31.7557 122.68 32.2854 122.381 32.8841 122.196C33.4827 122.006 34.1123 121.911 34.7727 121.911C35.2098 121.911 35.673 121.963 36.1624 122.068C36.6565 122.167 37.1174 122.353 37.545 122.623C37.9773 122.894 38.3313 123.281 38.6069 123.785C38.8824 124.284 39.0202 124.933 39.0202 125.731V133H36.9392V131.503H36.8537C36.7159 131.779 36.5092 132.05 36.2337 132.316C35.9581 132.582 35.6041 132.803 35.1718 132.979C34.7394 133.154 34.2215 133.242 33.6181 133.242ZM34.0814 131.532C34.6705 131.532 35.1742 131.415 35.5923 131.183C36.0151 130.95 36.3358 130.646 36.5544 130.27C36.7777 129.89 36.8893 129.484 36.8893 129.052V127.641C36.8133 127.717 36.666 127.788 36.4475 127.854C36.2337 127.916 35.989 127.971 35.7134 128.018C35.4378 128.061 35.1694 128.102 34.9081 128.14C34.6468 128.173 34.4282 128.201 34.2524 128.225C33.8391 128.277 33.4614 128.365 33.1193 128.489C32.7819 128.612 32.5111 128.79 32.3068 129.023C32.1073 129.251 32.0075 129.555 32.0075 129.935C32.0075 130.463 32.2023 130.862 32.5919 131.133C32.9815 131.399 33.478 131.532 34.0814 131.532ZM50.8311 122.053L46.8615 133H44.5809L40.6042 122.053H42.8918L45.6642 130.477H45.7782L48.5434 122.053H50.8311ZM57.0509 137.333C56.1815 137.333 55.4332 137.219 54.806 136.991C54.1836 136.763 53.6752 136.461 53.2809 136.086C52.8865 135.711 52.592 135.3 52.3972 134.853L54.2287 134.098C54.357 134.307 54.5281 134.528 54.7419 134.76C54.9604 134.998 55.255 135.2 55.6256 135.366C56.0009 135.532 56.4832 135.616 57.0723 135.616C57.88 135.616 58.5476 135.418 59.0749 135.024C59.6023 134.634 59.866 134.012 59.866 133.157V131.005H59.7306C59.6023 131.237 59.417 131.496 59.1747 131.781C58.9372 132.066 58.6093 132.313 58.1912 132.523C57.7731 132.732 57.2291 132.836 56.5592 132.836C55.6945 132.836 54.9153 132.634 54.2216 132.23C53.5327 131.822 52.9863 131.221 52.5825 130.427C52.1834 129.629 51.9838 128.648 51.9838 127.484C51.9838 126.32 52.181 125.322 52.5753 124.491C52.9744 123.659 53.5208 123.023 54.2145 122.581C54.9082 122.134 55.6945 121.911 56.5734 121.911C57.2529 121.911 57.8016 122.025 58.2197 122.253C58.6378 122.476 58.9633 122.737 59.1961 123.037C59.4337 123.336 59.6166 123.6 59.7449 123.828H59.9016V122.053H61.9898V133.242C61.9898 134.183 61.7712 134.955 61.3341 135.559C60.897 136.162 60.3055 136.609 59.5596 136.898C58.8184 137.188 57.9822 137.333 57.0509 137.333ZM57.0296 131.069C57.6425 131.069 58.1603 130.926 58.5832 130.641C59.0108 130.351 59.3339 129.938 59.5524 129.401C59.7757 128.859 59.8874 128.211 59.8874 127.455C59.8874 126.719 59.7781 126.07 59.5596 125.51C59.341 124.949 59.0203 124.512 58.5974 124.198C58.1746 123.88 57.652 123.721 57.0296 123.721C56.3882 123.721 55.8536 123.887 55.426 124.22C54.9984 124.548 54.6754 124.994 54.4568 125.56C54.243 126.125 54.1361 126.757 54.1361 127.455C54.1361 128.173 54.2454 128.802 54.4639 129.344C54.6825 129.886 55.0056 130.308 55.4332 130.613C55.8655 130.917 56.3977 131.069 57.0296 131.069ZM70.1588 133V122.053H72.2185V123.792H72.3325C72.5321 123.203 72.8836 122.74 73.3873 122.403C73.8956 122.06 74.4705 121.889 75.1119 121.889C75.245 121.889 75.4018 121.894 75.5823 121.904C75.7676 121.913 75.9125 121.925 76.017 121.939V123.978C75.9315 123.954 75.7795 123.928 75.5609 123.899C75.3424 123.866 75.1238 123.849 74.9053 123.849C74.4016 123.849 73.9527 123.956 73.5583 124.17C73.1687 124.379 72.8599 124.671 72.6318 125.047C72.4038 125.417 72.2897 125.84 72.2897 126.315V133H70.1588ZM80.9488 133.242C80.2551 133.242 79.6279 133.114 79.0673 132.857C78.5067 132.596 78.0624 132.218 77.7346 131.724C77.4115 131.23 77.25 130.624 77.25 129.907C77.25 129.289 77.3688 128.781 77.6063 128.382C77.8439 127.983 78.1646 127.667 78.5684 127.434C78.9723 127.201 79.4236 127.025 79.9225 126.907C80.4214 126.788 80.9298 126.698 81.4476 126.636C82.1033 126.56 82.6354 126.498 83.044 126.451C83.4526 126.398 83.7496 126.315 83.9349 126.201C84.1202 126.087 84.2128 125.902 84.2128 125.645V125.595C84.2128 124.973 84.037 124.491 83.6854 124.149C83.3386 123.806 82.8207 123.635 82.1318 123.635C81.4144 123.635 80.849 123.795 80.4356 124.113C80.027 124.427 79.7443 124.776 79.5876 125.161L77.5849 124.704C77.8225 124.039 78.1693 123.502 78.6254 123.094C79.0863 122.68 79.6161 122.381 80.2147 122.196C80.8134 122.006 81.4429 121.911 82.1033 121.911C82.5404 121.911 83.0036 121.963 83.493 122.068C83.9871 122.167 84.448 122.353 84.8756 122.623C85.308 122.894 85.6619 123.281 85.9375 123.785C86.2131 124.284 86.3508 124.933 86.3508 125.731V133H84.2698V131.503H84.1843C84.0465 131.779 83.8399 132.05 83.5643 132.316C83.2887 132.582 82.9348 132.803 82.5024 132.979C82.07 133.154 81.5522 133.242 80.9488 133.242ZM81.412 131.532C82.0011 131.532 82.5048 131.415 82.9229 131.183C83.3457 130.95 83.6664 130.646 83.885 130.27C84.1083 129.89 84.2199 129.484 84.2199 129.052V127.641C84.1439 127.717 83.9966 127.788 83.7781 127.854C83.5643 127.916 83.3196 127.971 83.044 128.018C82.7685 128.061 82.5 128.102 82.2387 128.14C81.9774 128.173 81.7588 128.201 81.583 128.225C81.1697 128.277 80.792 128.365 80.4499 128.489C80.1126 128.612 79.8417 128.79 79.6374 129.023C79.4379 129.251 79.3381 129.555 79.3381 129.935C79.3381 130.463 79.5329 130.862 79.9225 131.133C80.3121 131.399 80.8086 131.532 81.412 131.532ZM94.299 122.053V123.764H88.3196V122.053H94.299ZM89.9231 119.431H92.054V129.786C92.054 130.199 92.1158 130.51 92.2393 130.719C92.3629 130.924 92.522 131.064 92.7168 131.14C92.9164 131.211 93.1326 131.247 93.3654 131.247C93.5364 131.247 93.6861 131.235 93.8144 131.211C93.9426 131.187 94.0424 131.168 94.1137 131.154L94.4985 132.914C94.375 132.962 94.1992 133.01 93.9711 133.057C93.7431 133.109 93.458 133.138 93.1159 133.143C92.5553 133.152 92.0327 133.052 91.548 132.843C91.0634 132.634 90.6714 132.311 90.3721 131.874C90.0728 131.437 89.9231 130.888 89.9231 130.228V119.431ZM96.6562 133V122.053H98.7871V133H96.6562ZM97.7323 120.364C97.3617 120.364 97.0434 120.241 96.7773 119.994C96.516 119.742 96.3853 119.443 96.3853 119.096C96.3853 118.744 96.516 118.445 96.7773 118.198C97.0434 117.946 97.3617 117.82 97.7323 117.82C98.1029 117.82 98.4188 117.946 98.6802 118.198C98.9462 118.445 99.0793 118.744 99.0793 119.096C99.0793 119.443 98.9462 119.742 98.6802 119.994C98.4188 120.241 98.1029 120.364 97.7323 120.364ZM103.785 126.5V133H101.654V122.053H103.699V123.835H103.835C104.086 123.255 104.481 122.79 105.018 122.438C105.559 122.087 106.241 121.911 107.063 121.911C107.809 121.911 108.462 122.068 109.023 122.381C109.584 122.69 110.018 123.151 110.327 123.764C110.636 124.377 110.79 125.134 110.79 126.037V133H108.659V126.294C108.659 125.5 108.453 124.88 108.039 124.434C107.626 123.982 107.058 123.757 106.336 123.757C105.842 123.757 105.402 123.863 105.018 124.077C104.638 124.291 104.336 124.605 104.113 125.018C103.894 125.427 103.785 125.921 103.785 126.5ZM118.238 137.333C117.368 137.333 116.62 137.219 115.993 136.991C115.37 136.763 114.862 136.461 114.468 136.086C114.073 135.711 113.779 135.3 113.584 134.853L115.416 134.098C115.544 134.307 115.715 134.528 115.929 134.76C116.147 134.998 116.442 135.2 116.812 135.366C117.188 135.532 117.67 135.616 118.259 135.616C119.067 135.616 119.734 135.418 120.262 135.024C120.789 134.634 121.053 134.012 121.053 133.157V131.005H120.917C120.789 131.237 120.604 131.496 120.362 131.781C120.124 132.066 119.796 132.313 119.378 132.523C118.96 132.732 118.416 132.836 117.746 132.836C116.881 132.836 116.102 132.634 115.408 132.23C114.72 131.822 114.173 131.221 113.769 130.427C113.37 129.629 113.171 128.648 113.171 127.484C113.171 126.32 113.368 125.322 113.762 124.491C114.161 123.659 114.708 123.023 115.401 122.581C116.095 122.134 116.881 121.911 117.76 121.911C118.44 121.911 118.988 122.025 119.407 122.253C119.825 122.476 120.15 122.737 120.383 123.037C120.62 123.336 120.803 123.6 120.932 123.828H121.088V122.053H123.177V133.242C123.177 134.183 122.958 134.955 122.521 135.559C122.084 136.162 121.492 136.609 120.746 136.898C120.005 137.188 119.169 137.333 118.238 137.333ZM118.216 131.069C118.829 131.069 119.347 130.926 119.77 130.641C120.198 130.351 120.521 129.938 120.739 129.401C120.963 128.859 121.074 128.211 121.074 127.455C121.074 126.719 120.965 126.07 120.746 125.51C120.528 124.949 120.207 124.512 119.784 124.198C119.361 123.88 118.839 123.721 118.216 123.721C117.575 123.721 117.04 123.887 116.613 124.22C116.185 124.548 115.862 124.994 115.644 125.56C115.43 126.125 115.323 126.757 115.323 127.455C115.323 128.173 115.432 128.802 115.651 129.344C115.869 129.886 116.192 130.308 116.62 130.613C117.052 130.917 117.584 131.069 118.216 131.069Z" fill="white"/>
</svg>
