<svg width="205" height="23" viewBox="0 0 205 23" fill="none" xmlns="http://www.w3.org/2000/svg">
<g clip-path="url(#clip0_333_28)">
<g clip-path="url(#clip1_333_28)">
<g clip-path="url(#clip2_333_28)">
<path d="M2.32617 13.3538C20.6539 13.0356 38.6999 11.7733 56.6429 6.71908C57.2878 6.53741 66.2357 2.44412 62.8146 5.55175C58.6418 9.34213 54.4478 13.0389 50.7841 17.8711C48.3967 21.02 47.3461 21.6707 50.8915 20.8459C62.7947 18.0766 74.6792 15.2772 86.3969 11.1772C92.223 9.13861 109.472 1.79801 103.738 4.31113C100.915 5.54813 98.8222 10.0853 97.1436 13.274C95.4134 16.5607 93.9075 18.9595 97.7276 17.9939C110.611 14.7376 123.526 11.5214 136.191 6.80586C137.388 6.36021 148.333 -0.00956106 144.259 5.60561C141.486 9.42649 137.409 13.1703 135.749 18.3124C134.712 21.5273 139.708 19.1812 140.446 18.924C154.079 14.1687 167.51 9.60679 181.459 6.83541C185.501 6.03247 191.842 4.39888 202.137 4.78148" stroke="#CEFF44" stroke-width="3" stroke-linecap="round"/>
</g>
</g>
</g>
<defs>
<clipPath id="clip0_333_28">
<rect width="204" height="22" fill="white" transform="translate(0.189453 0.97998)"/>
</clipPath>
<clipPath id="clip1_333_28">
<rect width="204" height="22" fill="white" transform="translate(0.189453 0.97998)"/>
</clipPath>
<clipPath id="clip2_333_28">
<rect width="204" height="22" fill="white" transform="translate(0.189453 0.97998)"/>
</clipPath>
</defs>
</svg>
