<svg width="111" height="40" viewBox="0 0 111 40" fill="none" xmlns="http://www.w3.org/2000/svg">
<path d="M18.0771 0.919922H2.00857H1.67381C0.74939 0.919922 0 1.66931 0 2.59373C0 3.51815 0.74939 4.26754 1.67381 4.26754H7.36476V26.6966C7.36476 27.9908 8.41391 29.0399 9.7081 29.0399C11.0023 29.0399 12.0514 27.9908 12.0514 26.6966V4.26754H18.4119C19.3363 4.26754 20.0857 3.51815 20.0857 2.59373C20.0857 1.66931 19.3363 0.919922 18.4119 0.919922H18.0771Z" fill="white"/>
<path d="M24.9605 21.3404V7.94993C24.9605 5.28067 27.1244 3.1168 29.7937 3.1168H34.4803C37.1496 3.1168 39.3135 5.28066 39.3135 7.94992V21.3404C39.3135 24.0097 37.1496 26.1735 34.4803 26.1735H29.7937C27.1244 26.1735 24.9605 24.0097 24.9605 21.3404Z" stroke="white" stroke-width="4.39375"/>
<path d="M46.8672 27.0313V1.92421C46.8672 1.36956 47.3168 0.919922 47.8715 0.919922H59.0023C61.9142 0.919922 64.2748 3.2805 64.2748 6.19243V13.055C64.2748 15.967 61.9142 18.3275 59.0023 18.3275H55.3199C54.3493 18.3275 53.5624 17.5407 53.5624 16.57V16.0679C53.5624 15.0973 54.3493 14.3104 55.3199 14.3104H58.5002C59.4708 14.3104 60.2577 13.5235 60.2577 12.5529V6.02504C60.2577 5.0544 59.4708 4.26754 58.5002 4.26754H51.8886C51.334 4.26754 50.8843 4.71718 50.8843 5.27183V27.0313C50.8843 28.1407 49.9851 29.0399 48.8758 29.0399C47.7665 29.0399 46.8672 28.1407 46.8672 27.0313Z" fill="white"/>
<path d="M26.8495 37.1075C26.5789 37.1075 26.3705 37.0344 26.2243 36.8881C26.078 36.7418 26.0049 36.5352 26.0049 36.2683V33.5642H26.3943V36.2464C26.3943 36.4146 26.4363 36.5444 26.5204 36.6358C26.6082 36.7272 26.7325 36.7729 26.8934 36.7729C27.0653 36.7729 27.2079 36.7236 27.3212 36.6248L27.4584 36.9046C27.3816 36.974 27.2883 37.0252 27.1786 37.0581C27.0726 37.091 26.9629 37.1075 26.8495 37.1075ZM25.4893 34.5241V34.2005H27.2719V34.5241H25.4893ZM28.1673 37.0801V34.2005H28.5567V37.0801H28.1673ZM28.3648 33.5642C28.2843 33.5642 28.2167 33.5368 28.1618 33.482C28.107 33.4271 28.0795 33.3613 28.0795 33.2845C28.0795 33.2077 28.107 33.1437 28.1618 33.0925C28.2167 33.0377 28.2843 33.0103 28.3648 33.0103C28.4452 33.0103 28.5128 33.0359 28.5677 33.087C28.6225 33.1382 28.65 33.2022 28.65 33.279C28.65 33.3595 28.6225 33.4271 28.5677 33.482C28.5165 33.5368 28.4489 33.5642 28.3648 33.5642ZM33.2384 34.1731C33.4724 34.1731 33.6754 34.2188 33.8472 34.3102C34.0228 34.3979 34.1581 34.5332 34.2531 34.7161C34.3519 34.8989 34.4012 35.1293 34.4012 35.4072V37.0801H34.0118V35.4456C34.0118 35.1421 33.9387 34.9135 33.7924 34.76C33.6498 34.6027 33.4468 34.5241 33.1836 34.5241C32.9861 34.5241 32.8142 34.5661 32.668 34.6503C32.5254 34.7307 32.4138 34.8495 32.3334 35.0068C32.2566 35.1604 32.2182 35.3468 32.2182 35.5662V37.0801H31.8288V35.4456C31.8288 35.1421 31.7557 34.9135 31.6094 34.76C31.4631 34.6027 31.2584 34.5241 30.9951 34.5241C30.8013 34.5241 30.6312 34.5661 30.485 34.6503C30.3387 34.7307 30.2254 34.8495 30.1449 35.0068C30.0681 35.1604 30.0297 35.3468 30.0297 35.5662V37.0801H29.6403V34.2005H30.0133V34.9793L29.9529 34.8422C30.0407 34.6338 30.1815 34.4711 30.3753 34.3541C30.5727 34.2334 30.8049 34.1731 31.0719 34.1731C31.3534 34.1731 31.5929 34.2444 31.7904 34.387C31.9879 34.5259 32.1158 34.7362 32.1743 35.0177L32.0208 34.9574C32.1049 34.7234 32.253 34.5351 32.465 34.3925C32.6808 34.2462 32.9386 34.1731 33.2384 34.1731ZM36.6805 37.1075C36.3806 37.1075 36.1174 37.0453 35.8906 36.921C35.6639 36.793 35.4866 36.6193 35.3586 36.3999C35.2306 36.1769 35.1666 35.9228 35.1666 35.6375C35.1666 35.3523 35.227 35.1 35.3476 34.8806C35.472 34.6612 35.6402 34.4894 35.8522 34.365C36.068 34.2371 36.3093 34.1731 36.5763 34.1731C36.8468 34.1731 37.0864 34.2352 37.2948 34.3595C37.5069 34.4802 37.6732 34.6521 37.7939 34.8751C37.9146 35.0945 37.9749 35.3487 37.9749 35.6375C37.9749 35.6558 37.9731 35.6759 37.9694 35.6979C37.9694 35.7162 37.9694 35.7363 37.9694 35.7582H35.4628V35.4675H37.761L37.6074 35.5827C37.6074 35.3743 37.5617 35.1896 37.4703 35.0287C37.3825 34.8642 37.2619 34.7362 37.1083 34.6448C36.9547 34.5534 36.7774 34.5076 36.5763 34.5076C36.3788 34.5076 36.2015 34.5534 36.0442 34.6448C35.887 34.7362 35.7645 34.8642 35.6767 35.0287C35.589 35.1933 35.5451 35.3816 35.5451 35.5937V35.654C35.5451 35.8734 35.5926 36.0672 35.6877 36.2354C35.7864 36.3999 35.9217 36.5298 36.0936 36.6248C36.2691 36.7162 36.4684 36.762 36.6914 36.762C36.867 36.762 37.0297 36.7309 37.1796 36.6687C37.3332 36.6065 37.4648 36.5115 37.5745 36.3835L37.7939 36.6358C37.6659 36.7894 37.505 36.9064 37.3112 36.9868C37.1211 37.0673 36.9108 37.1075 36.6805 37.1075ZM41.3769 37.1075C41.099 37.1075 40.8485 37.0453 40.6254 36.921C40.406 36.793 40.2323 36.6193 40.1044 36.3999C39.9764 36.1769 39.9124 35.9228 39.9124 35.6375C39.9124 35.3487 39.9764 35.0945 40.1044 34.8751C40.2323 34.6557 40.406 34.4839 40.6254 34.3595C40.8448 34.2352 41.0953 34.1731 41.3769 34.1731C41.6621 34.1731 41.9144 34.2352 42.1338 34.3595C42.3568 34.4839 42.5305 34.6557 42.6549 34.8751C42.7828 35.0945 42.8468 35.3487 42.8468 35.6375C42.8468 35.9228 42.7828 36.1769 42.6549 36.3999C42.5305 36.6193 42.3568 36.793 42.1338 36.921C41.9107 37.0453 41.6584 37.1075 41.3769 37.1075ZM41.3769 36.762C41.5853 36.762 41.7699 36.7162 41.9308 36.6248C42.0917 36.5298 42.2179 36.3981 42.3093 36.2299C42.4044 36.0581 42.4519 35.8606 42.4519 35.6375C42.4519 35.4108 42.4044 35.2134 42.3093 35.0452C42.2179 34.877 42.0917 34.7472 41.9308 34.6557C41.7699 34.5607 41.5871 34.5131 41.3823 34.5131C41.1776 34.5131 40.9947 34.5607 40.8339 34.6557C40.673 34.7472 40.545 34.877 40.4499 35.0452C40.3548 35.2134 40.3073 35.4108 40.3073 35.6375C40.3073 35.8606 40.3548 36.0581 40.4499 36.2299C40.545 36.3981 40.673 36.5298 40.8339 36.6248C40.9947 36.7162 41.1757 36.762 41.3769 36.762ZM43.7077 37.0801V33.8385C43.7077 33.5825 43.7827 33.3759 43.9326 33.2187C44.0825 33.0614 44.2982 32.9828 44.5798 32.9828C44.6895 32.9828 44.7956 32.9975 44.8979 33.0267C45.0003 33.056 45.0863 33.1017 45.1557 33.1638L45.0241 33.4545C44.9692 33.407 44.9052 33.3723 44.8321 33.3503C44.759 33.3247 44.6804 33.3119 44.5963 33.3119C44.4317 33.3119 44.3056 33.3576 44.2178 33.4491C44.13 33.5405 44.0862 33.6758 44.0862 33.8549V34.2937L44.0971 34.4747V37.0801H43.7077ZM43.1921 34.5241V34.2005H44.9747V34.5241H43.1921ZM48.4225 37.1075C48.1738 37.1075 47.9489 37.0508 47.7478 36.9375C47.5467 36.8205 47.3858 36.6541 47.2652 36.4383C47.1481 36.2189 47.0896 35.952 47.0896 35.6375C47.0896 35.3231 47.1481 35.058 47.2652 34.8422C47.3822 34.6228 47.5412 34.4565 47.7423 34.3431C47.9435 34.2297 48.1702 34.1731 48.4225 34.1731C48.6967 34.1731 48.9417 34.2352 49.1575 34.3595C49.3769 34.4802 49.5487 34.6521 49.673 34.8751C49.7974 35.0945 49.8595 35.3487 49.8595 35.6375C49.8595 35.9301 49.7974 36.186 49.673 36.4054C49.5487 36.6248 49.3769 36.7967 49.1575 36.921C48.9417 37.0453 48.6967 37.1075 48.4225 37.1075ZM46.9361 38.1442V34.2005H47.309V35.0671L47.2706 35.643L47.3255 36.2244V38.1442H46.9361ZM48.3951 36.762C48.5998 36.762 48.7827 36.7162 48.9435 36.6248C49.1044 36.5298 49.2324 36.3981 49.3275 36.2299C49.4226 36.0581 49.4701 35.8606 49.4701 35.6375C49.4701 35.4145 49.4226 35.2189 49.3275 35.0507C49.2324 34.8824 49.1044 34.7508 48.9435 34.6557C48.7827 34.5607 48.5998 34.5131 48.3951 34.5131C48.1903 34.5131 48.0056 34.5607 47.8411 34.6557C47.6802 34.7508 47.5522 34.8824 47.4571 35.0507C47.3657 35.2189 47.32 35.4145 47.32 35.6375C47.32 35.8606 47.3657 36.0581 47.4571 36.2299C47.5522 36.3981 47.6802 36.5298 47.8411 36.6248C48.0056 36.7162 48.1903 36.762 48.3951 36.762ZM51.8765 37.1075C51.5767 37.1075 51.3134 37.0453 51.0867 36.921C50.86 36.793 50.6826 36.6193 50.5547 36.3999C50.4267 36.1769 50.3627 35.9228 50.3627 35.6375C50.3627 35.3523 50.423 35.1 50.5437 34.8806C50.668 34.6612 50.8362 34.4894 51.0483 34.365C51.264 34.2371 51.5054 34.1731 51.7723 34.1731C52.0429 34.1731 52.2824 34.2352 52.4908 34.3595C52.7029 34.4802 52.8693 34.6521 52.99 34.8751C53.1106 35.0945 53.171 35.3487 53.171 35.6375C53.171 35.6558 53.1691 35.6759 53.1655 35.6979C53.1655 35.7162 53.1655 35.7363 53.1655 35.7582H50.6589V35.4675H52.9571L52.8035 35.5827C52.8035 35.3743 52.7578 35.1896 52.6664 35.0287C52.5786 34.8642 52.4579 34.7362 52.3044 34.6448C52.1508 34.5534 51.9734 34.5076 51.7723 34.5076C51.5749 34.5076 51.3975 34.5534 51.2403 34.6448C51.083 34.7362 50.9605 34.8642 50.8728 35.0287C50.785 35.1933 50.7411 35.3816 50.7411 35.5937V35.654C50.7411 35.8734 50.7887 36.0672 50.8838 36.2354C50.9825 36.3999 51.1178 36.5298 51.2896 36.6248C51.4652 36.7162 51.6644 36.762 51.8875 36.762C52.063 36.762 52.2257 36.7309 52.3757 36.6687C52.5292 36.6065 52.6609 36.5115 52.7706 36.3835L52.99 36.6358C52.862 36.7894 52.7011 36.9064 52.5073 36.9868C52.3172 37.0673 52.1069 37.1075 51.8765 37.1075ZM55.1374 37.1075C54.8595 37.1075 54.609 37.0453 54.386 36.921C54.1666 36.793 53.9929 36.6193 53.8649 36.3999C53.7369 36.1769 53.6729 35.9228 53.6729 35.6375C53.6729 35.3487 53.7369 35.0945 53.8649 34.8751C53.9929 34.6557 54.1666 34.4839 54.386 34.3595C54.6054 34.2352 54.8558 34.1731 55.1374 34.1731C55.4226 34.1731 55.6749 34.2352 55.8943 34.3595C56.1174 34.4839 56.2911 34.6557 56.4154 34.8751C56.5434 35.0945 56.6074 35.3487 56.6074 35.6375C56.6074 35.9228 56.5434 36.1769 56.4154 36.3999C56.2911 36.6193 56.1174 36.793 55.8943 36.921C55.6713 37.0453 55.419 37.1075 55.1374 37.1075ZM55.1374 36.762C55.3458 36.762 55.5305 36.7162 55.6914 36.6248C55.8523 36.5298 55.9784 36.3981 56.0698 36.2299C56.1649 36.0581 56.2125 35.8606 56.2125 35.6375C56.2125 35.4108 56.1649 35.2134 56.0698 35.0452C55.9784 34.877 55.8523 34.7472 55.6914 34.6557C55.5305 34.5607 55.3477 34.5131 55.1429 34.5131C54.9381 34.5131 54.7553 34.5607 54.5944 34.6557C54.4335 34.7472 54.3055 34.877 54.2105 35.0452C54.1154 35.2134 54.0678 35.4108 54.0678 35.6375C54.0678 35.8606 54.1154 36.0581 54.2105 36.2299C54.3055 36.3981 54.4335 36.5298 54.5944 36.6248C54.7553 36.7162 54.9363 36.762 55.1374 36.762ZM58.8888 37.1075C58.6402 37.1075 58.4153 37.0508 58.2142 36.9375C58.0131 36.8205 57.8522 36.6541 57.7315 36.4383C57.6145 36.2189 57.556 35.952 57.556 35.6375C57.556 35.3231 57.6145 35.058 57.7315 34.8422C57.8485 34.6228 58.0076 34.4565 58.2087 34.3431C58.4098 34.2297 58.6365 34.1731 58.8888 34.1731C59.1631 34.1731 59.4081 34.2352 59.6238 34.3595C59.8432 34.4802 60.0151 34.6521 60.1394 34.8751C60.2637 35.0945 60.3259 35.3487 60.3259 35.6375C60.3259 35.9301 60.2637 36.186 60.1394 36.4054C60.0151 36.6248 59.8432 36.7967 59.6238 36.921C59.4081 37.0453 59.1631 37.1075 58.8888 37.1075ZM57.4024 38.1442V34.2005H57.7754V35.0671L57.737 35.643L57.7919 36.2244V38.1442H57.4024ZM58.8614 36.762C59.0662 36.762 59.249 36.7162 59.4099 36.6248C59.5708 36.5298 59.6988 36.3981 59.7939 36.2299C59.8889 36.0581 59.9365 35.8606 59.9365 35.6375C59.9365 35.4145 59.8889 35.2189 59.7939 35.0507C59.6988 34.8824 59.5708 34.7508 59.4099 34.6557C59.249 34.5607 59.0662 34.5131 58.8614 34.5131C58.6567 34.5131 58.472 34.5607 58.3074 34.6557C58.1466 34.7508 58.0186 34.8824 57.9235 35.0507C57.8321 35.2189 57.7864 35.4145 57.7864 35.6375C57.7864 35.8606 57.8321 36.0581 57.9235 36.2299C58.0186 36.3981 58.1466 36.5298 58.3074 36.6248C58.472 36.7162 58.6567 36.762 58.8614 36.762ZM61.1198 37.0801V33.0103H61.5092V37.0801H61.1198ZM63.8159 37.1075C63.5161 37.1075 63.2528 37.0453 63.0261 36.921C62.7994 36.793 62.622 36.6193 62.494 36.3999C62.3661 36.1769 62.3021 35.9228 62.3021 35.6375C62.3021 35.3523 62.3624 35.1 62.4831 34.8806C62.6074 34.6612 62.7756 34.4894 62.9877 34.365C63.2034 34.2371 63.4448 34.1731 63.7117 34.1731C63.9823 34.1731 64.2218 34.2352 64.4302 34.3595C64.6423 34.4802 64.8087 34.6521 64.9293 34.8751C65.05 35.0945 65.1103 35.3487 65.1103 35.6375C65.1103 35.6558 65.1085 35.6759 65.1049 35.6979C65.1049 35.7162 65.1049 35.7363 65.1049 35.7582H62.5982V35.4675H64.8964L64.7429 35.5827C64.7429 35.3743 64.6972 35.1896 64.6057 35.0287C64.518 34.8642 64.3973 34.7362 64.2437 34.6448C64.0902 34.5534 63.9128 34.5076 63.7117 34.5076C63.5142 34.5076 63.3369 34.5534 63.1797 34.6448C63.0224 34.7362 62.8999 34.8642 62.8122 35.0287C62.7244 35.1933 62.6805 35.3816 62.6805 35.5937V35.654C62.6805 35.8734 62.7281 36.0672 62.8231 36.2354C62.9219 36.3999 63.0572 36.5298 63.229 36.6248C63.4045 36.7162 63.6038 36.762 63.8269 36.762C64.0024 36.762 64.1651 36.7309 64.315 36.6687C64.4686 36.6065 64.6003 36.5115 64.7099 36.3835L64.9293 36.6358C64.8014 36.7894 64.6405 36.9064 64.4467 36.9868C64.2565 37.0673 64.0463 37.1075 63.8159 37.1075Z" fill="white"/>
<rect x="69.1602" y="1" width="11.875" height="38" fill="white"/>
<rect opacity="0.7" x="84.0742" y="1" width="11.875" height="38" fill="white"/>
<rect opacity="0.3" x="98.9902" y="1" width="11.875" height="38" fill="white"/>
</svg>
